<mxfile host="app.diagrams.net" modified="2024-01-31T23:14:10.522Z" agent="Mozilla/5.0 (Windows NT 10.0; Win64; x64) AppleWebKit/537.36 (KHTML, like Gecko) Chrome/121.0.0.0 Safari/537.36" etag="shMfxR0bPu9RAQSN74Of" version="23.1.0" type="github">
  <diagram id="C5RBs43oDa-KdzZeNtuy" name="Page-1">
    <mxGraphModel dx="1434" dy="738" grid="1" gridSize="10" guides="1" tooltips="1" connect="1" arrows="1" fold="1" page="1" pageScale="1" pageWidth="1390" pageHeight="980" math="0" shadow="0">
      <root>
        <mxCell id="WIyWlLk6GJQsqaUBKTNV-0" />
        <mxCell id="WIyWlLk6GJQsqaUBKTNV-1" parent="WIyWlLk6GJQsqaUBKTNV-0" />
        <mxCell id="ADYXReCiLZOSGAEErF9N-6" style="edgeStyle=orthogonalEdgeStyle;rounded=0;orthogonalLoop=1;jettySize=auto;html=1;exitX=1;exitY=0.5;exitDx=0;exitDy=0;entryX=0;entryY=0.5;entryDx=0;entryDy=0;" edge="1" parent="WIyWlLk6GJQsqaUBKTNV-1" source="ADYXReCiLZOSGAEErF9N-1" target="ADYXReCiLZOSGAEErF9N-2">
          <mxGeometry relative="1" as="geometry" />
        </mxCell>
        <mxCell id="ADYXReCiLZOSGAEErF9N-1" value="Input Order" style="verticalLabelPosition=middle;verticalAlign=middle;html=1;shape=trapezoid;perimeter=trapezoidPerimeter;whiteSpace=wrap;size=0.23;arcSize=10;flipV=1;labelPosition=center;align=center;" vertex="1" parent="WIyWlLk6GJQsqaUBKTNV-1">
          <mxGeometry x="40" y="40" width="100" height="60" as="geometry" />
        </mxCell>
        <mxCell id="ADYXReCiLZOSGAEErF9N-7" style="edgeStyle=orthogonalEdgeStyle;rounded=0;orthogonalLoop=1;jettySize=auto;html=1;exitX=1;exitY=0.5;exitDx=0;exitDy=0;entryX=0;entryY=0.5;entryDx=0;entryDy=0;" edge="1" parent="WIyWlLk6GJQsqaUBKTNV-1" source="ADYXReCiLZOSGAEErF9N-2" target="ADYXReCiLZOSGAEErF9N-4">
          <mxGeometry relative="1" as="geometry" />
        </mxCell>
        <mxCell id="ADYXReCiLZOSGAEErF9N-2" value="Connect to providers to find better prices and promotions" style="rounded=1;whiteSpace=wrap;html=1;absoluteArcSize=1;arcSize=14;strokeWidth=2;" vertex="1" parent="WIyWlLk6GJQsqaUBKTNV-1">
          <mxGeometry x="190" y="20" width="100" height="100" as="geometry" />
        </mxCell>
        <mxCell id="ADYXReCiLZOSGAEErF9N-3" value="Process payment" style="rounded=1;whiteSpace=wrap;html=1;absoluteArcSize=1;arcSize=14;strokeWidth=2;" vertex="1" parent="WIyWlLk6GJQsqaUBKTNV-1">
          <mxGeometry x="490" y="20" width="100" height="100" as="geometry" />
        </mxCell>
        <mxCell id="ADYXReCiLZOSGAEErF9N-8" style="edgeStyle=orthogonalEdgeStyle;rounded=0;orthogonalLoop=1;jettySize=auto;html=1;exitX=1;exitY=0.5;exitDx=0;exitDy=0;entryX=0;entryY=0.5;entryDx=0;entryDy=0;" edge="1" parent="WIyWlLk6GJQsqaUBKTNV-1" source="ADYXReCiLZOSGAEErF9N-4" target="ADYXReCiLZOSGAEErF9N-3">
          <mxGeometry relative="1" as="geometry" />
        </mxCell>
        <mxCell id="ADYXReCiLZOSGAEErF9N-4" value="Send notification to user confirm the purchase" style="rounded=1;whiteSpace=wrap;html=1;absoluteArcSize=1;arcSize=14;strokeWidth=2;" vertex="1" parent="WIyWlLk6GJQsqaUBKTNV-1">
          <mxGeometry x="340" y="20" width="100" height="100" as="geometry" />
        </mxCell>
        <mxCell id="ADYXReCiLZOSGAEErF9N-14" style="edgeStyle=orthogonalEdgeStyle;rounded=0;orthogonalLoop=1;jettySize=auto;html=1;exitX=0.5;exitY=1;exitDx=0;exitDy=0;exitPerimeter=0;entryX=0.5;entryY=0;entryDx=0;entryDy=0;" edge="1" parent="WIyWlLk6GJQsqaUBKTNV-1" source="ADYXReCiLZOSGAEErF9N-5" target="ADYXReCiLZOSGAEErF9N-10">
          <mxGeometry relative="1" as="geometry" />
        </mxCell>
        <mxCell id="ADYXReCiLZOSGAEErF9N-18" style="edgeStyle=orthogonalEdgeStyle;rounded=0;orthogonalLoop=1;jettySize=auto;html=1;exitX=1;exitY=0.5;exitDx=0;exitDy=0;exitPerimeter=0;" edge="1" parent="WIyWlLk6GJQsqaUBKTNV-1" source="ADYXReCiLZOSGAEErF9N-5" target="ADYXReCiLZOSGAEErF9N-17">
          <mxGeometry relative="1" as="geometry" />
        </mxCell>
        <mxCell id="ADYXReCiLZOSGAEErF9N-5" value="Payment confirmed?" style="strokeWidth=2;html=1;shape=mxgraph.flowchart.decision;whiteSpace=wrap;" vertex="1" parent="WIyWlLk6GJQsqaUBKTNV-1">
          <mxGeometry x="640" y="20" width="100" height="100" as="geometry" />
        </mxCell>
        <mxCell id="ADYXReCiLZOSGAEErF9N-9" style="edgeStyle=orthogonalEdgeStyle;rounded=0;orthogonalLoop=1;jettySize=auto;html=1;exitX=1;exitY=0.5;exitDx=0;exitDy=0;entryX=0;entryY=0.5;entryDx=0;entryDy=0;entryPerimeter=0;" edge="1" parent="WIyWlLk6GJQsqaUBKTNV-1" source="ADYXReCiLZOSGAEErF9N-3" target="ADYXReCiLZOSGAEErF9N-5">
          <mxGeometry relative="1" as="geometry" />
        </mxCell>
        <mxCell id="ADYXReCiLZOSGAEErF9N-12" value="" style="edgeStyle=orthogonalEdgeStyle;rounded=0;orthogonalLoop=1;jettySize=auto;html=1;" edge="1" parent="WIyWlLk6GJQsqaUBKTNV-1" source="ADYXReCiLZOSGAEErF9N-10" target="ADYXReCiLZOSGAEErF9N-11">
          <mxGeometry relative="1" as="geometry" />
        </mxCell>
        <mxCell id="ADYXReCiLZOSGAEErF9N-10" value="Send notification about payment status" style="rounded=1;whiteSpace=wrap;html=1;absoluteArcSize=1;arcSize=14;strokeWidth=2;" vertex="1" parent="WIyWlLk6GJQsqaUBKTNV-1">
          <mxGeometry x="640" y="170" width="100" height="100" as="geometry" />
        </mxCell>
        <mxCell id="ADYXReCiLZOSGAEErF9N-13" style="edgeStyle=orthogonalEdgeStyle;rounded=0;orthogonalLoop=1;jettySize=auto;html=1;exitX=0.5;exitY=0;exitDx=0;exitDy=0;entryX=0.5;entryY=1;entryDx=0;entryDy=0;" edge="1" parent="WIyWlLk6GJQsqaUBKTNV-1" source="ADYXReCiLZOSGAEErF9N-11" target="ADYXReCiLZOSGAEErF9N-4">
          <mxGeometry relative="1" as="geometry" />
        </mxCell>
        <mxCell id="ADYXReCiLZOSGAEErF9N-11" value="Ask user to update payment method" style="whiteSpace=wrap;html=1;rounded=1;arcSize=14;strokeWidth=2;" vertex="1" parent="WIyWlLk6GJQsqaUBKTNV-1">
          <mxGeometry x="330" y="190" width="120" height="60" as="geometry" />
        </mxCell>
        <mxCell id="ADYXReCiLZOSGAEErF9N-15" value="No" style="text;html=1;strokeColor=none;fillColor=none;align=center;verticalAlign=middle;whiteSpace=wrap;rounded=0;" vertex="1" parent="WIyWlLk6GJQsqaUBKTNV-1">
          <mxGeometry x="680" y="125" width="60" height="30" as="geometry" />
        </mxCell>
        <mxCell id="ADYXReCiLZOSGAEErF9N-16" value="Yes" style="text;html=1;strokeColor=none;fillColor=none;align=center;verticalAlign=middle;whiteSpace=wrap;rounded=0;" vertex="1" parent="WIyWlLk6GJQsqaUBKTNV-1">
          <mxGeometry x="730" y="40" width="60" height="30" as="geometry" />
        </mxCell>
        <mxCell id="ADYXReCiLZOSGAEErF9N-19" style="edgeStyle=orthogonalEdgeStyle;rounded=0;orthogonalLoop=1;jettySize=auto;html=1;exitX=1;exitY=0.5;exitDx=0;exitDy=0;" edge="1" parent="WIyWlLk6GJQsqaUBKTNV-1" source="ADYXReCiLZOSGAEErF9N-17">
          <mxGeometry relative="1" as="geometry">
            <mxPoint x="940" y="70" as="targetPoint" />
          </mxGeometry>
        </mxCell>
        <mxCell id="ADYXReCiLZOSGAEErF9N-17" value="Send order to provider" style="rounded=1;whiteSpace=wrap;html=1;absoluteArcSize=1;arcSize=14;strokeWidth=2;" vertex="1" parent="WIyWlLk6GJQsqaUBKTNV-1">
          <mxGeometry x="790" y="20" width="100" height="100" as="geometry" />
        </mxCell>
        <mxCell id="ADYXReCiLZOSGAEErF9N-22" style="edgeStyle=orthogonalEdgeStyle;rounded=0;orthogonalLoop=1;jettySize=auto;html=1;exitX=1;exitY=0.5;exitDx=0;exitDy=0;entryX=0;entryY=0.5;entryDx=0;entryDy=0;" edge="1" parent="WIyWlLk6GJQsqaUBKTNV-1" source="ADYXReCiLZOSGAEErF9N-20" target="ADYXReCiLZOSGAEErF9N-21">
          <mxGeometry relative="1" as="geometry" />
        </mxCell>
        <mxCell id="ADYXReCiLZOSGAEErF9N-20" value="Follow up the delivery status" style="rounded=1;whiteSpace=wrap;html=1;absoluteArcSize=1;arcSize=14;strokeWidth=2;" vertex="1" parent="WIyWlLk6GJQsqaUBKTNV-1">
          <mxGeometry x="940" y="20" width="100" height="100" as="geometry" />
        </mxCell>
        <mxCell id="ADYXReCiLZOSGAEErF9N-21" value="Finish order" style="rounded=1;whiteSpace=wrap;html=1;absoluteArcSize=1;arcSize=14;strokeWidth=2;" vertex="1" parent="WIyWlLk6GJQsqaUBKTNV-1">
          <mxGeometry x="1090" y="20" width="100" height="100" as="geometry" />
        </mxCell>
        <mxCell id="ADYXReCiLZOSGAEErF9N-25" style="edgeStyle=orthogonalEdgeStyle;rounded=0;orthogonalLoop=1;jettySize=auto;html=1;exitX=1;exitY=0.5;exitDx=0;exitDy=0;exitPerimeter=0;" edge="1" parent="WIyWlLk6GJQsqaUBKTNV-1" source="ADYXReCiLZOSGAEErF9N-24">
          <mxGeometry relative="1" as="geometry">
            <mxPoint x="230" y="450" as="targetPoint" />
          </mxGeometry>
        </mxCell>
        <mxCell id="ADYXReCiLZOSGAEErF9N-24" value="Receive products" style="strokeWidth=2;html=1;shape=mxgraph.flowchart.start_2;whiteSpace=wrap;" vertex="1" parent="WIyWlLk6GJQsqaUBKTNV-1">
          <mxGeometry x="40" y="400" width="100" height="100" as="geometry" />
        </mxCell>
        <mxCell id="ADYXReCiLZOSGAEErF9N-27" style="edgeStyle=orthogonalEdgeStyle;rounded=0;orthogonalLoop=1;jettySize=auto;html=1;exitX=1;exitY=0.5;exitDx=0;exitDy=0;" edge="1" parent="WIyWlLk6GJQsqaUBKTNV-1" source="ADYXReCiLZOSGAEErF9N-26">
          <mxGeometry relative="1" as="geometry">
            <mxPoint x="410" y="450" as="targetPoint" />
          </mxGeometry>
        </mxCell>
        <mxCell id="ADYXReCiLZOSGAEErF9N-26" value="Update stocks automatically" style="rounded=1;whiteSpace=wrap;html=1;absoluteArcSize=1;arcSize=14;strokeWidth=2;" vertex="1" parent="WIyWlLk6GJQsqaUBKTNV-1">
          <mxGeometry x="230" y="400" width="100" height="100" as="geometry" />
        </mxCell>
        <mxCell id="ADYXReCiLZOSGAEErF9N-29" value="Are the quantities correct?" style="strokeWidth=2;html=1;shape=mxgraph.flowchart.decision;whiteSpace=wrap;" vertex="1" parent="WIyWlLk6GJQsqaUBKTNV-1">
          <mxGeometry x="410" y="400" width="100" height="100" as="geometry" />
        </mxCell>
        <mxCell id="ADYXReCiLZOSGAEErF9N-30" value="Update manually" style="html=1;strokeWidth=2;shape=manualInput;whiteSpace=wrap;rounded=1;size=26;arcSize=11;" vertex="1" parent="WIyWlLk6GJQsqaUBKTNV-1">
          <mxGeometry x="410" y="560" width="100" height="60" as="geometry" />
        </mxCell>
        <mxCell id="ADYXReCiLZOSGAEErF9N-31" style="edgeStyle=orthogonalEdgeStyle;rounded=0;orthogonalLoop=1;jettySize=auto;html=1;exitX=0.5;exitY=1;exitDx=0;exitDy=0;exitPerimeter=0;entryX=0.5;entryY=0.167;entryDx=0;entryDy=0;entryPerimeter=0;" edge="1" parent="WIyWlLk6GJQsqaUBKTNV-1" source="ADYXReCiLZOSGAEErF9N-29" target="ADYXReCiLZOSGAEErF9N-30">
          <mxGeometry relative="1" as="geometry" />
        </mxCell>
        <mxCell id="ADYXReCiLZOSGAEErF9N-32" value="End of the process" style="strokeWidth=2;html=1;shape=mxgraph.flowchart.terminator;whiteSpace=wrap;" vertex="1" parent="WIyWlLk6GJQsqaUBKTNV-1">
          <mxGeometry x="590" y="420" width="100" height="60" as="geometry" />
        </mxCell>
        <mxCell id="ADYXReCiLZOSGAEErF9N-33" style="edgeStyle=orthogonalEdgeStyle;rounded=0;orthogonalLoop=1;jettySize=auto;html=1;exitX=1;exitY=0.5;exitDx=0;exitDy=0;exitPerimeter=0;entryX=0;entryY=0.5;entryDx=0;entryDy=0;entryPerimeter=0;" edge="1" parent="WIyWlLk6GJQsqaUBKTNV-1" source="ADYXReCiLZOSGAEErF9N-29" target="ADYXReCiLZOSGAEErF9N-32">
          <mxGeometry relative="1" as="geometry" />
        </mxCell>
      </root>
    </mxGraphModel>
  </diagram>
</mxfile>
